<?xml version="1.0" ?><svg enable-background="new 0 0 512 512" id="Layer_1" version="1.1" viewBox="0 0 512 512" xml:space="preserve" xmlns="http://www.w3.org/2000/svg" xmlns:xlink="http://www.w3.org/1999/xlink"><g><g><linearGradient gradientUnits="userSpaceOnUse" id="SVGID_1_" x1="0.0000083" x2="512" y1="256" y2="256"><stop offset="0" style="stop-color:#F35CB5"/><stop offset="1" style="stop-color:#EC008C"/></linearGradient><circle cx="256" cy="256" fill="url(#SVGID_1_)" r="256"/><linearGradient gradientUnits="userSpaceOnUse" id="SVGID_2_" x1="42.6666756" x2="469.333313" y1="256.0005188" y2="256.0005188"><stop offset="0" style="stop-color:#EC008C"/><stop offset="1" style="stop-color:#F35CB5"/></linearGradient><path d="M256,469.3338623c-117.6309204,0-213.3333282-95.7018738-213.3333282-213.3333435    c0-117.6309204,95.7024078-213.333313,213.3333282-213.333313c117.636261,0,213.333313,95.7024002,213.333313,213.333313    C469.333313,373.6319885,373.636261,469.3338623,256,469.3338623z" fill="url(#SVGID_2_)"/></g><g><path d="M164.8261414,195.5114594h145.4095764V164.293869c0-5.752533-4.6799927-10.4346771-10.4351807-10.4346771    H164.8261414c-11.4842682,0-20.8261261,9.3392029-20.8261261,20.8234711S153.3418732,195.5114594,164.8261414,195.5114594z" opacity="0.3"/><path d="M291.1567993,290.29599l20.186676-38.1317291h56.4895935v-22.3930664    c0-13.1349335-10.6869507-23.8245239-23.8250732-23.8245239h-23.337616h-5.2175903H164.8261414    c-8.0037384,0-15.2906647-3.0496063-20.8261261-8.0149384v152.3845215c0,13.1354675,10.6864014,23.8245544,23.8245239,23.8245544    h176.1834564c13.1381226,0,23.8250732-10.6890869,23.8250732-23.8245544v-21.8885193h-56.4895935L291.1567993,290.29599z     M255.9167938,351.5290527h-91.8447876v-10.4351807h91.8447876V351.5290527z" opacity="0.3"/><path d="M383.4085388,262.598938h-65.7824097l-14.6640015,27.697052l14.6640015,27.6970825h65.7824097    c0.3263855,0,0.5914612-0.2650757,0.5914612-0.5909424v-54.2122498    C384,262.8640137,383.7349243,262.598938,383.4085388,262.598938z M338.5322571,302.9429321    c-6.9845276,0-12.6469421-5.6618652-12.6469421-12.6469421c0-6.9855957,5.6624146-12.6474609,12.6469421-12.6474609    c6.9850769,0,12.6474609,5.6618652,12.6474609,12.6474609C351.179718,297.2810669,345.517334,302.9429321,338.5322571,302.9429321    z" opacity="0.3"/></g><g><path d="M156.8261414,187.5114594h145.4095764V156.293869c0-5.752533-4.6799927-10.4346771-10.4351807-10.4346771    H156.8261414c-11.4842682,0-20.8261261,9.3392029-20.8261261,20.8234711S145.3418732,187.5114594,156.8261414,187.5114594z" fill="#FFFFFF"/><path d="M283.1567993,282.29599l20.186676-38.1317291h56.4895935v-22.3930664    c0-13.1349335-10.6869507-23.8245239-23.8250732-23.8245239h-23.337616h-5.2175903H156.8261414    c-8.0037384,0-15.2906647-3.0496063-20.8261261-8.0149384v152.3845215c0,13.1354675,10.6864014,23.8245544,23.8245239,23.8245544    h176.1834564c13.1381226,0,23.8250732-10.6890869,23.8250732-23.8245544v-21.8885193h-56.4895935L283.1567993,282.29599z     M247.9167938,343.5290527h-91.8447876v-10.4351807h91.8447876V343.5290527z" fill="#FFFFFF"/><path d="M375.4085388,254.598938h-65.7824097l-14.6640015,27.697052l14.6640015,27.6970825h65.7824097    c0.3263855,0,0.5914612-0.2650757,0.5914612-0.5909424v-54.212265C376,254.8639984,375.7349243,254.598938,375.4085388,254.598938    z M330.5322571,294.9429321c-6.9845276,0-12.6469421-5.6618652-12.6469421-12.6469421    c0-6.9855957,5.6624146-12.6474609,12.6469421-12.6474609c6.9850769,0,12.6474609,5.6618652,12.6474609,12.6474609    C343.179718,289.2810669,337.517334,294.9429321,330.5322571,294.9429321z" fill="#FFFFFF"/></g></g></svg>